<?xml version="1.0" encoding="UTF-8"?>
<svg width="560px" height="177px" viewBox="0 0 560 177" version="1.1" xmlns="http://www.w3.org/2000/svg" xmlns:xlink="http://www.w3.org/1999/xlink">
    <!-- Generator: Sketch 50.2 (55047) - http://www.bohemiancoding.com/sketch -->
    <title>Astrid Lindgren Logo Company</title>
    <desc>Created with Sketch.</desc>
    <defs>
        <polygon id="path-1" points="0.06 0.144 424.492673 0.144 424.492673 177 0.06 177"></polygon>
    </defs>
    <g id="Astrid-Lindgren-Logo-Company" stroke="none" stroke-width="1" fill="none" fill-rule="evenodd">
        <path d="M226.626,22.335 L218.564,41.697 L234.621,41.697 L226.626,22.335 Z M229.4,10.111 L250.48,58.547 L242.154,58.547 L237.264,47.578 L215.92,47.578 L211.097,58.547 L202.771,58.547 L223.85,10.111 L229.4,10.111 Z" id="Fill-1" fill="#fafaf5"></path>
        <path d="M279.381,59.737 C277.395,59.824 275.542,59.691 273.82,59.336 C272.1,58.981 270.444,58.471 268.857,57.804 C267.267,57.138 265.723,56.327 264.223,55.371 C262.721,54.416 261.243,53.383 259.787,52.272 L264.148,46.653 C266.306,48.328 268.642,49.661 271.153,50.652 C273.664,51.643 276.307,52.094 279.083,52.005 C280.272,51.962 281.461,51.786 282.65,51.478 C283.84,51.17 284.907,50.719 285.856,50.125 C286.802,49.531 287.563,48.794 288.135,47.915 C288.707,47.035 288.994,46.001 288.994,44.814 C288.994,43.934 288.586,43.144 287.772,42.439 C286.956,41.735 285.954,41.109 284.765,40.558 C283.575,40.009 282.309,39.525 280.965,39.107 C279.621,38.689 278.399,38.349 277.298,38.085 C275.712,37.689 273.928,37.194 271.946,36.6 C269.963,36.006 268.08,35.181 266.296,34.126 C264.512,33.07 263.002,31.74 261.77,30.134 C260.536,28.528 259.875,26.516 259.787,24.097 C259.698,21.633 260.14,19.489 261.11,17.664 C262.081,15.838 263.395,14.299 265.05,13.046 C266.704,11.792 268.59,10.836 270.709,10.176 C272.827,9.516 274.989,9.143 277.197,9.054 C281.168,8.966 284.699,9.627 287.788,11.036 C290.878,12.446 293.857,14.274 296.726,16.521 L292.421,22.204 C290.168,20.442 287.806,19.076 285.334,18.107 C282.861,17.138 280.234,16.697 277.453,16.785 C276.348,16.785 275.211,16.917 274.042,17.182 C272.871,17.446 271.812,17.865 270.862,18.437 C269.913,19.01 269.14,19.758 268.544,20.684 C267.948,21.609 267.65,22.732 267.65,24.054 C267.65,24.979 268.036,25.783 268.809,26.466 C269.581,27.149 270.553,27.744 271.724,28.25 C272.893,28.757 274.162,29.208 275.531,29.605 C276.9,30.001 278.159,30.354 279.307,30.662 C281.117,31.147 283.026,31.719 285.036,32.38 C287.045,33.041 288.909,33.9 290.632,34.957 C292.354,36.014 293.789,37.314 294.937,38.855 C296.085,40.398 296.681,42.292 296.726,44.539 C296.769,47.138 296.305,49.385 295.335,51.278 C294.364,53.173 293.063,54.737 291.43,55.97 C289.797,57.204 287.932,58.129 285.836,58.746 C283.74,59.362 281.588,59.693 279.381,59.737" id="Fill-2" fill="#fafaf5"></path>
        <polyline id="Fill-3" fill="#fafaf5" points="329.963 58.547 322.232 58.547 322.232 17.842 306.372 17.842 306.372 10.111 345.756 10.111 345.756 17.842 329.963 17.842 329.963 58.547"></polyline>
        <path d="M372.968,37.138 C374.461,37.138 375.931,36.952 377.38,36.578 C378.829,36.205 380.123,35.624 381.265,34.833 C382.407,34.043 383.329,33.044 384.031,31.837 C384.733,30.63 385.086,29.191 385.086,27.523 C385.086,25.855 384.756,24.417 384.098,23.209 C383.439,22.002 382.539,21.004 381.398,20.213 C380.256,19.423 378.928,18.831 377.413,18.435 C375.898,18.041 374.284,17.842 372.572,17.842 L365.658,17.842 L365.658,37.138 L372.968,37.138 Z M357.927,58.547 L357.927,10.111 L372.558,10.111 C375.338,10.111 377.953,10.464 380.403,11.169 C382.853,11.874 384.993,12.942 386.825,14.373 C388.656,15.805 390.112,17.611 391.194,19.792 C392.275,21.972 392.816,24.539 392.816,27.49 C392.816,31.058 391.86,34.175 389.949,36.84 C388.038,39.506 385.559,41.499 382.508,42.82 C383.741,45.508 385.29,48.074 387.153,50.519 C389.017,52.963 391.411,55.64 394.336,58.547 L385.35,58.547 C384.34,57.711 383.406,56.852 382.551,55.97 C381.693,55.089 380.871,54.109 380.081,53.03 C379.29,51.951 378.5,50.74 377.71,49.395 C376.919,48.052 376.064,46.499 375.142,44.737 C374.57,44.781 373.934,44.814 373.232,44.836 C372.529,44.859 371.838,44.869 371.157,44.869 C370.476,44.869 369.84,44.869 369.247,44.869 C368.654,44.869 368.204,44.869 367.898,44.869 L365.658,44.869 L365.658,58.547 L357.927,58.547 Z" id="Fill-4" fill="#fafaf5"></path>
        <polygon id="Fill-5" fill="#fafaf5" points="405.801 58.547 413.532 58.547 413.532 10.111 405.801 10.111"></polygon>
        <path d="M442.151,50.816 C444.97,50.816 447.438,50.333 449.552,49.365 C451.666,48.399 453.44,47.135 454.871,45.574 C456.303,44.013 457.371,42.233 458.076,40.232 C458.78,38.231 459.134,36.198 459.134,34.131 C459.134,32.109 458.78,30.12 458.076,28.163 C457.371,26.208 456.314,24.471 454.904,22.953 C453.493,21.437 451.721,20.206 449.585,19.26 C447.447,18.315 444.927,17.842 442.019,17.842 L435.94,17.842 L435.94,50.816 L442.151,50.816 Z M428.208,58.547 L428.208,10.111 L441.995,10.111 C446.173,10.111 449.812,10.794 452.912,12.159 C456.012,13.526 458.597,15.331 460.663,17.578 C462.731,19.825 464.28,22.392 465.314,25.276 C466.348,28.162 466.864,31.124 466.864,34.164 C466.864,37.204 466.348,40.188 465.314,43.118 C464.28,46.048 462.719,48.647 460.63,50.915 C458.542,53.185 455.958,55.023 452.88,56.433 C449.801,57.843 446.217,58.547 442.127,58.547 L428.208,58.547 Z" id="Fill-6" fill="#fafaf5"></path>
        <polyline id="Fill-7" fill="#fafaf5" points="210.756 114.794 232.496 114.794 232.496 122.525 203.024 122.525 203.024 74.089 210.756 74.089 210.756 114.794"></polyline>
        <polygon id="Fill-8" fill="#fafaf5" points="246.499 122.525 254.23 122.525 254.23 74.089 246.499 74.089"></polygon>
        <polyline id="Fill-9" fill="#fafaf5" points="301.189 122.525 278.442 89.287 278.442 122.525 270.711 122.525 270.711 74.089 277.385 74.089 300.183 107.393 300.183 74.089 307.914 74.089 307.914 122.525 301.189 122.525"></polyline>
        <path d="M336.486,114.794 C339.305,114.794 341.773,114.311 343.887,113.343 C346.001,112.377 347.774,111.113 349.206,109.552 C350.638,107.991 351.706,106.211 352.411,104.21 C353.115,102.209 353.469,100.176 353.469,98.109 C353.469,96.087 353.115,94.098 352.411,92.141 C351.706,90.186 350.648,88.449 349.239,86.931 C347.828,85.414 346.056,84.184 343.92,83.238 C341.782,82.293 339.262,81.82 336.354,81.82 L330.274,81.82 L330.274,114.794 L336.486,114.794 Z M322.543,122.525 L322.543,74.089 L336.33,74.089 C340.508,74.089 344.147,74.773 347.247,76.138 C350.347,77.504 352.932,79.309 354.998,81.556 C357.065,83.803 358.615,86.37 359.648,89.254 C360.683,92.14 361.199,95.103 361.199,98.142 C361.199,101.182 360.683,104.167 359.648,107.096 C358.615,110.026 357.054,112.625 354.965,114.893 C352.877,117.163 350.293,119.002 347.215,120.411 C344.136,121.821 340.552,122.525 336.462,122.525 L322.543,122.525 Z" id="Fill-10" fill="#fafaf5"></path>
        <path d="M395.024,122.525 C391.324,122.525 388.02,121.931 385.112,120.741 C382.205,119.552 379.748,117.878 377.744,115.719 C375.739,113.561 374.22,111.006 373.185,108.054 C372.149,105.103 371.632,101.887 371.632,98.406 C371.632,95.059 372.138,91.909 373.151,88.957 C374.165,86.006 375.651,83.429 377.612,81.226 C379.572,79.023 381.962,77.284 384.782,76.005 C387.601,74.728 390.816,74.089 394.43,74.089 C397.557,74.089 400.607,74.579 403.581,75.555 C406.555,76.533 409.628,78.466 412.8,81.354 L407.646,86.644 C405.31,84.574 403.053,83.253 400.872,82.679 C398.691,82.108 396.544,81.82 394.43,81.82 C392.051,81.82 389.925,82.237 388.053,83.071 C386.18,83.905 384.606,85.067 383.328,86.56 C382.05,88.051 381.069,89.807 380.388,91.824 C379.704,93.843 379.363,96.037 379.363,98.406 C379.363,100.776 379.704,102.959 380.388,104.956 C381.069,106.952 382.083,108.685 383.427,110.154 C384.771,111.624 386.411,112.765 388.351,113.577 C390.288,114.388 392.513,114.794 395.024,114.794 C397.007,114.794 398.813,114.629 400.442,114.298 C402.072,113.968 403.525,113.406 404.804,112.613 L405.465,98.208 L413.13,98.208 L412.469,116.727 C409.781,118.727 406.973,120.193 404.044,121.127 C401.114,122.06 398.107,122.525 395.024,122.525" id="Fill-11" fill="#fafaf5"></path>
        <path d="M443.363,101.116 C444.857,101.116 446.326,100.93 447.775,100.556 C449.224,100.183 450.519,99.602 451.66,98.811 C452.802,98.021 453.725,97.022 454.426,95.814 C455.129,94.608 455.481,93.17 455.481,91.501 C455.481,89.833 455.151,88.395 454.492,87.187 C453.834,85.98 452.935,84.981 451.793,84.191 C450.65,83.401 449.322,82.809 447.808,82.413 C446.294,82.019 444.68,81.82 442.968,81.82 L436.054,81.82 L436.054,101.116 L443.363,101.116 Z M428.321,122.525 L428.321,74.089 L442.953,74.089 C445.732,74.089 448.349,74.442 450.798,75.146 C453.247,75.852 455.389,76.92 457.221,78.351 C459.052,79.783 460.508,81.589 461.59,83.77 C462.671,85.95 463.212,88.517 463.212,91.468 C463.212,95.036 462.256,98.153 460.345,100.818 C458.434,103.484 455.954,105.477 452.903,106.798 C454.137,109.486 455.686,112.052 457.549,114.497 C459.412,116.941 461.807,119.618 464.732,122.525 L455.745,122.525 C454.735,121.689 453.802,120.83 452.945,119.948 C452.089,119.067 451.266,118.087 450.476,117.008 C449.686,115.929 448.896,114.718 448.106,113.373 C447.315,112.03 446.459,110.477 445.537,108.715 C444.966,108.759 444.329,108.792 443.627,108.814 C442.925,108.836 442.232,108.847 441.553,108.847 C440.871,108.847 440.234,108.847 439.643,108.847 C439.05,108.847 438.6,108.847 438.293,108.847 L436.054,108.847 L436.054,122.525 L428.321,122.525 Z" id="Fill-12" fill="#fafaf5"></path>
        <polyline id="Fill-13" fill="#fafaf5" points="501.08 102.437 482.843 102.437 482.843 114.794 509.869 114.794 509.869 122.525 475.111 122.525 475.111 74.089 509.869 74.089 509.869 81.82 482.843 81.82 482.843 94.706 501.08 94.706 501.08 102.437"></polyline>
        <polyline id="Fill-14" fill="#fafaf5" points="553.067 122.525 530.32 89.287 530.32 122.525 522.589 122.525 522.589 74.089 529.263 74.089 552.061 107.393 552.061 74.089 559.792 74.089 559.792 122.525 553.067 122.525"></polyline>
        <path d="M215.958,168.096 C213.864,168.096 211.955,167.735 210.229,167.014 C208.503,166.293 207.018,165.272 205.774,163.952 C204.531,162.631 203.566,161.04 202.88,159.175 C202.193,157.311 201.85,155.235 201.85,152.949 C201.85,150.798 202.166,148.805 202.798,146.967 C203.43,145.13 204.354,143.538 205.57,142.19 C206.787,140.844 208.265,139.782 210.005,139.006 C211.744,138.231 213.729,137.842 215.958,137.842 C216.99,137.842 217.956,137.919 218.853,138.069 C219.75,138.22 220.632,138.467 221.503,138.811 C222.372,139.154 223.242,139.607 224.112,140.17 C224.982,140.733 225.906,141.452 226.885,142.328 C227.074,142.49 227.074,142.668 226.885,142.857 L224.764,145.222 C224.574,145.44 224.398,145.481 224.234,145.345 C223.501,144.638 222.794,144.061 222.114,143.612 C221.435,143.163 220.769,142.811 220.116,142.552 C219.464,142.294 218.798,142.11 218.119,142.002 C217.439,141.893 216.718,141.838 215.958,141.838 C214.381,141.838 212.961,142.124 211.697,142.693 C210.433,143.263 209.366,144.043 208.496,145.033 C207.626,146.024 206.96,147.197 206.499,148.554 C206.036,149.911 205.805,151.375 205.805,152.949 C205.805,154.522 206.036,155.988 206.499,157.344 C206.96,158.701 207.626,159.881 208.496,160.885 C209.366,161.889 210.433,162.676 211.697,163.246 C212.961,163.815 214.381,164.1 215.958,164.1 C217.534,164.1 218.961,163.869 220.239,163.407 C221.516,162.945 222.902,162.102 224.398,160.879 C224.561,160.743 224.724,160.784 224.887,161.002 L226.885,163.448 C227.048,163.666 227.034,163.856 226.844,164.019 C224.968,165.556 223.188,166.62 221.503,167.21 C219.817,167.801 217.969,168.096 215.958,168.096" id="Fill-15" fill="#fafaf5"></path>
        <path d="M246.203,142.083 C244.704,142.083 243.376,142.396 242.218,143.021 C241.06,143.646 240.093,144.482 239.317,145.528 C238.541,146.575 237.955,147.757 237.56,149.075 C237.165,150.394 236.968,151.746 236.968,153.132 C236.968,154.464 237.158,155.782 237.54,157.087 C237.92,158.392 238.507,159.554 239.296,160.573 C240.087,161.592 241.074,162.415 242.259,163.04 C243.444,163.666 244.826,163.978 246.406,163.978 C247.932,163.978 249.267,163.666 250.411,163.04 C251.555,162.415 252.515,161.586 253.292,160.553 C254.068,159.52 254.654,158.345 255.049,157.026 C255.444,155.708 255.641,154.356 255.641,152.969 C255.641,151.61 255.45,150.278 255.069,148.974 C254.688,147.669 254.102,146.507 253.312,145.487 C252.522,144.468 251.541,143.646 250.37,143.021 C249.199,142.396 247.809,142.083 246.203,142.083 Z M246.427,167.973 C244.197,167.973 242.248,167.545 240.576,166.689 C238.904,165.833 237.504,164.705 236.377,163.305 C235.248,161.905 234.405,160.308 233.849,158.514 C233.291,156.72 233.013,154.885 233.013,153.01 C233.013,151.134 233.291,149.307 233.849,147.526 C234.405,145.746 235.241,144.156 236.356,142.755 C237.47,141.356 238.857,140.228 240.515,139.372 C242.172,138.515 244.116,138.087 246.345,138.087 C248.574,138.087 250.524,138.515 252.196,139.372 C253.868,140.228 255.268,141.356 256.396,142.755 C257.523,144.156 258.366,145.753 258.923,147.546 C259.481,149.34 259.759,151.175 259.759,153.051 C259.759,154.926 259.481,156.754 258.923,158.535 C258.366,160.315 257.53,161.905 256.416,163.305 C255.301,164.705 253.915,165.833 252.257,166.689 C250.599,167.545 248.655,167.973 246.427,167.973 Z" id="Fill-16" fill="#fafaf5"></path>
        <path d="M273.451,138.087 C273.586,138.087 273.695,138.142 273.777,138.25 L282.787,151.624 C282.869,151.732 282.977,151.787 283.114,151.787 C283.25,151.787 283.358,151.732 283.44,151.624 L292.45,138.25 C292.532,138.142 292.641,138.087 292.776,138.087 L295.549,138.087 C295.794,138.087 295.93,138.21 295.957,138.454 L299.056,167.525 C299.082,167.824 298.946,167.973 298.648,167.973 L295.427,167.973 C295.183,167.973 295.046,167.851 295.02,167.607 L292.776,146.038 C292.749,145.848 292.648,145.732 292.471,145.691 C292.294,145.65 292.151,145.711 292.043,145.875 L284.581,156.924 C284.5,157.033 284.391,157.087 284.255,157.087 L281.972,157.087 C281.836,157.087 281.727,157.033 281.646,156.924 L274.185,145.834 C274.076,145.671 273.933,145.609 273.756,145.65 C273.579,145.691 273.477,145.807 273.451,145.997 L271.208,167.607 C271.181,167.851 271.045,167.973 270.8,167.973 L267.579,167.973 C267.28,167.973 267.144,167.824 267.171,167.525 L270.271,138.454 C270.297,138.21 270.433,138.087 270.678,138.087 L273.451,138.087" id="Fill-17" fill="#fafaf5"></path>
        <path d="M311.752,154.967 C311.752,155.239 311.888,155.375 312.16,155.375 L317.093,155.375 C318.533,155.375 319.777,155.171 320.824,154.763 C321.87,154.356 322.74,153.812 323.434,153.132 C324.126,152.453 324.636,151.692 324.962,150.849 C325.288,150.007 325.451,149.15 325.451,148.28 C325.424,147.492 325.254,146.717 324.942,145.956 C324.629,145.195 324.153,144.516 323.515,143.918 C322.876,143.32 322.074,142.837 321.109,142.47 C320.144,142.103 318.982,141.92 317.623,141.92 L312.16,141.92 C311.888,141.92 311.752,142.056 311.752,142.328 L311.752,154.967 Z M311.752,167.565 C311.752,167.838 311.615,167.973 311.344,167.973 L308.205,167.973 C307.933,167.973 307.797,167.838 307.797,167.565 L307.797,138.495 C307.797,138.224 307.933,138.087 308.205,138.087 L317.36,138.087 C319.368,138.087 321.118,138.373 322.61,138.943 C324.103,139.514 325.344,140.275 326.334,141.227 C327.324,142.178 328.077,143.259 328.592,144.468 C329.107,145.678 329.379,146.921 329.406,148.199 C329.406,149.558 329.148,150.904 328.634,152.235 C328.118,153.567 327.339,154.757 326.294,155.803 C325.25,156.85 323.941,157.692 322.369,158.331 C320.797,158.97 318.953,159.289 316.838,159.289 L312.16,159.289 C311.888,159.289 311.752,159.425 311.752,159.697 L311.752,167.565 Z" id="Fill-18" fill="#fafaf5"></path>
        <path d="M352.324,157.902 C352.487,157.902 352.603,157.841 352.671,157.719 C352.738,157.597 352.745,157.468 352.691,157.332 L347.554,145.141 C347.472,144.951 347.35,144.856 347.187,144.856 C347.023,144.856 346.901,144.951 346.82,145.141 L341.683,157.332 C341.628,157.468 341.635,157.597 341.703,157.719 C341.771,157.841 341.887,157.902 342.05,157.902 L352.324,157.902 Z M345.597,138.332 C345.678,138.169 345.814,138.087 346.004,138.087 L348.369,138.087 C348.559,138.087 348.695,138.169 348.776,138.332 L361.416,167.403 C361.471,167.539 361.464,167.668 361.396,167.79 C361.328,167.912 361.212,167.973 361.05,167.973 L357.624,167.973 C357.462,167.973 357.339,167.892 357.258,167.729 L354.403,161.246 C354.322,161.083 354.199,161.002 354.036,161.002 L340.337,161.002 C340.147,161.002 340.011,161.083 339.929,161.246 L337.116,167.729 C337.034,167.892 336.898,167.973 336.708,167.973 L333.324,167.973 C333.161,167.973 333.045,167.912 332.978,167.79 C332.909,167.668 332.902,167.539 332.957,167.403 L345.597,138.332 Z" id="Fill-19" fill="#fafaf5"></path>
        <path d="M391.718,167.565 C391.718,167.838 391.582,167.973 391.311,167.973 L388.375,167.973 C388.238,167.973 388.13,167.919 388.049,167.81 L373.696,146.853 C373.588,146.664 373.439,146.602 373.248,146.669 C373.058,146.738 372.963,146.867 372.963,147.057 L372.963,167.565 C372.963,167.838 372.826,167.973 372.555,167.973 L369.415,167.973 C369.144,167.973 369.008,167.838 369.008,167.565 L369.008,138.495 C369.008,138.224 369.144,138.087 369.415,138.087 L372.351,138.087 C372.487,138.087 372.596,138.142 372.678,138.25 L387.029,159.248 C387.138,159.439 387.287,159.5 387.478,159.432 C387.668,159.364 387.764,159.234 387.764,159.044 L387.764,138.495 C387.764,138.224 387.898,138.087 388.171,138.087 L391.311,138.087 C391.582,138.087 391.718,138.224 391.718,138.495 L391.718,167.565" id="Fill-20" fill="#fafaf5"></path>
        <g id="Group-24">
            <mask id="mask-2" fill="white">
                <use xlink:href="#path-1"></use>
            </mask>
            <g id="Clip-22"></g>
            <path d="M411.483,150.196 C411.565,150.306 411.672,150.36 411.807,150.36 C411.941,150.36 412.049,150.306 412.13,150.196 L420.064,138.25 C420.145,138.142 420.253,138.087 420.39,138.087 L424.059,138.087 C424.249,138.087 424.378,138.155 424.446,138.291 C424.514,138.427 424.508,138.576 424.426,138.74 L413.865,154.6 C413.811,154.682 413.784,154.763 413.784,154.845 L413.784,167.565 C413.784,167.838 413.649,167.973 413.381,167.973 L410.232,167.973 C409.964,167.973 409.829,167.838 409.829,167.565 L409.829,154.845 C409.829,154.763 409.802,154.682 409.748,154.6 L399.147,138.74 C399.065,138.576 399.059,138.427 399.126,138.291 C399.194,138.155 399.323,138.087 399.514,138.087 L403.224,138.087 C403.359,138.087 403.469,138.142 403.551,138.25 L411.483,150.196" id="Fill-21" fill="#fafaf5" mask="url(#mask-2)"></path>
            <path d="M110.355,138.804 L100.452,111.598 C99.648,109.386 98.244,107.442 96.399,105.98 C87.657,99.045 74.836,94.639 67.519,93.594 L73.714,93.594 L73.714,93.611 L93.905,93.611 L73.699,38.092 L79.488,22.161 C80.059,20.765 80.735,18.995 81.512,16.862 L94.422,16.862 L134.215,120.527 C135.126,122.955 136.037,125.392 136.948,127.849 C137.459,129.229 137.968,130.489 138.478,131.632 L141.231,138.804 L110.355,138.804 Z M35.964,138.804 C50.786,131.469 55.829,109.77 55.829,109.77 C51.244,131.01 66.831,138.804 66.831,138.804 L35.964,138.804 Z M88.428,0.144 C39.591,0.144 0,39.734 0,88.572 C0,137.41 39.591,177 88.428,177 C137.265,177 176.856,137.41 176.856,88.572 C176.856,39.734 137.265,0.144 88.428,0.144 Z" id="Fill-23" fill="#fafaf5" mask="url(#mask-2)"></path>
        </g>
    </g>
</svg>
