<svg xmlns="http://www.w3.org/2000/svg" height="177" width="560" style="isolation:isolate" viewBox="0 0 564 181">
  <path d="M228.626 24.191l-8.062 19.362h16.057zm2.774-12.224l21.08 48.436h-8.326l-4.89-10.969H217.92l-4.823 10.969h-8.326l21.079-48.436zM281.381 61.593c-1.986.087-3.839-.046-5.561-.401a26.72 26.72 0 0 1-4.963-1.532 30.634 30.634 0 0 1-4.634-2.433 63.313 63.313 0 0 1-4.436-3.099l4.361-5.619a28.345 28.345 0 0 0 7.005 3.999c2.511.991 5.154 1.442 7.93 1.353a16.58 16.58 0 0 0 3.567-.527 11.36 11.36 0 0 0 3.206-1.353c.946-.594 1.707-1.331 2.279-2.21.572-.88.859-1.914.859-3.101 0-.88-.408-1.67-1.222-2.375-.816-.704-1.818-1.33-3.007-1.881a31.127 31.127 0 0 0-3.8-1.451 57.967 57.967 0 0 0-3.667-1.022c-1.586-.396-3.37-.891-5.352-1.485a25.35 25.35 0 0 1-5.65-2.474 15.757 15.757 0 0 1-4.526-3.992c-1.234-1.606-1.895-3.618-1.983-6.037-.089-2.464.353-4.608 1.323-6.433a13.934 13.934 0 0 1 3.94-4.618c1.654-1.254 3.54-2.21 5.659-2.87a25.11 25.11 0 0 1 6.488-1.122c3.971-.088 7.502.573 10.591 1.982 3.09 1.41 6.069 3.238 8.938 5.485l-4.305 5.683c-2.253-1.762-4.615-3.128-7.087-4.097-2.473-.969-5.1-1.41-7.881-1.322-1.105 0-2.242.132-3.411.397-1.171.264-2.23.683-3.18 1.255a7.053 7.053 0 0 0-2.318 2.247c-.596.925-.894 2.048-.894 3.37 0 .925.386 1.729 1.159 2.412.772.683 1.744 1.278 2.915 1.784 1.169.507 2.438.958 3.807 1.355 1.369.396 2.628.749 3.776 1.057 1.81.485 3.719 1.057 5.729 1.718a26.482 26.482 0 0 1 5.596 2.577c1.722 1.057 3.157 2.357 4.305 3.898 1.148 1.543 1.744 3.437 1.789 5.684.043 2.599-.421 4.846-1.391 6.739-.971 1.895-2.272 3.459-3.905 4.692-1.633 1.234-3.498 2.159-5.594 2.776a24.527 24.527 0 0 1-6.455.991zM331.963 60.403h-7.731V19.698h-15.86v-7.731h39.384v7.731h-15.793v40.705M374.968 38.994a17.58 17.58 0 0 0 4.412-.56c1.449-.373 2.743-.954 3.885-1.745a9.257 9.257 0 0 0 2.766-2.996c.702-1.207 1.055-2.646 1.055-4.314 0-1.668-.33-3.106-.988-4.314a8.637 8.637 0 0 0-2.7-2.996c-1.142-.79-2.47-1.382-3.985-1.778-1.515-.394-3.129-.593-4.841-.593h-6.914v19.296zm-15.041 21.409V11.967h14.631c2.78 0 5.395.353 7.845 1.058 2.45.705 4.59 1.773 6.422 3.204 1.831 1.432 3.287 3.238 4.369 5.419 1.081 2.18 1.622 4.747 1.622 7.698 0 3.568-.956 6.685-2.867 9.35-1.911 2.666-4.39 4.659-7.441 5.98a40.65 40.65 0 0 0 4.645 7.699c1.864 2.444 4.258 5.121 7.183 8.028h-8.986a34.773 34.773 0 0 1-2.799-2.577 27.413 27.413 0 0 1-2.47-2.94 42.92 42.92 0 0 1-2.371-3.635 107.31 107.31 0 0 1-2.568-4.658c-.572.044-1.208.077-1.91.099-.703.023-1.394.033-2.075.033H367.658v13.678zM407.801 60.403h7.731V11.967h-7.731zM444.151 52.672c2.819 0 5.287-.483 7.401-1.451 2.114-.966 3.888-2.23 5.319-3.791a15.383 15.383 0 0 0 3.205-5.342 18.262 18.262 0 0 0 1.058-6.101c0-2.022-.354-4.011-1.058-5.968a15.108 15.108 0 0 0-3.172-5.21c-1.411-1.516-3.183-2.747-5.319-3.693-2.138-.945-4.658-1.418-7.566-1.418h-6.079v32.974zm-13.943 7.731V11.967h13.787c4.178 0 7.817.683 10.917 2.048 3.1 1.367 5.685 3.172 7.751 5.419a22.43 22.43 0 0 1 4.651 7.698 26.158 26.158 0 0 1 1.55 8.888c0 3.04-.516 6.024-1.55 8.954a22.38 22.38 0 0 1-4.684 7.797c-2.088 2.27-4.672 4.108-7.75 5.518-3.079 1.41-6.663 2.114-10.753 2.114zM212.756 116.65h21.74v7.731h-29.472V75.945h7.732v40.705M248.499 124.381h7.731V75.945h-7.731zM303.189 124.381l-22.747-33.238v33.238h-7.731V75.945h6.674l22.798 33.304V75.945h7.731v48.436h-6.725M338.486 116.65c2.819 0 5.287-.483 7.401-1.451 2.114-.966 3.887-2.23 5.319-3.791a15.383 15.383 0 0 0 3.205-5.342 18.262 18.262 0 0 0 1.058-6.101c0-2.022-.354-4.011-1.058-5.968a15.123 15.123 0 0 0-3.172-5.21c-1.411-1.517-3.183-2.747-5.319-3.693-2.138-.945-4.658-1.418-7.566-1.418h-6.08v32.974zm-13.943 7.731V75.945h13.787c4.178 0 7.817.684 10.917 2.049 3.1 1.366 5.685 3.171 7.751 5.418a22.428 22.428 0 0 1 4.65 7.698 26.14 26.14 0 0 1 1.551 8.888c0 3.04-.516 6.025-1.551 8.954a22.362 22.362 0 0 1-4.683 7.797c-2.088 2.27-4.672 4.109-7.75 5.518-3.079 1.41-6.663 2.114-10.753 2.114zM397.024 124.381c-3.7 0-7.004-.594-9.912-1.784-2.907-1.189-5.364-2.863-7.368-5.022-2.005-2.158-3.524-4.713-4.559-7.665-1.036-2.951-1.553-6.167-1.553-9.648 0-3.347.506-6.497 1.519-9.449 1.014-2.951 2.5-5.528 4.461-7.731 1.96-2.203 4.35-3.942 7.17-5.221 2.819-1.277 6.034-1.916 9.648-1.916 3.127 0 6.177.49 9.151 1.466 2.974.978 6.047 2.911 9.219 5.799l-5.154 5.29c-2.336-2.07-4.593-3.391-6.774-3.965-2.181-.571-4.328-.859-6.442-.859-2.379 0-4.505.417-6.377 1.251-1.873.834-3.447 1.996-4.725 3.489-1.278 1.491-2.259 3.247-2.94 5.264-.684 2.019-1.025 4.213-1.025 6.582 0 2.37.341 4.553 1.025 6.55.681 1.996 1.695 3.729 3.039 5.198 1.344 1.47 2.984 2.611 4.924 3.423 1.937.811 4.162 1.217 6.673 1.217 1.983 0 3.789-.165 5.418-.496 1.63-.33 3.083-.892 4.362-1.685l.661-14.405h7.665l-.661 18.519c-2.688 2-5.496 3.466-8.425 4.4a29.552 29.552 0 0 1-9.02 1.398zM445.363 102.972c1.494 0 2.963-.186 4.412-.56 1.449-.373 2.744-.954 3.885-1.745a9.24 9.24 0 0 0 2.766-2.997c.703-1.206 1.055-2.644 1.055-4.313 0-1.668-.33-3.106-.989-4.314a8.606 8.606 0 0 0-2.699-2.996c-1.143-.79-2.471-1.382-3.985-1.778-1.514-.394-3.128-.593-4.84-.593h-6.914v19.296zm-15.042 21.409V75.945h14.632c2.779 0 5.396.353 7.845 1.057 2.449.706 4.591 1.774 6.423 3.205 1.831 1.432 3.287 3.238 4.369 5.419 1.081 2.18 1.622 4.747 1.622 7.698 0 3.568-.956 6.685-2.867 9.35-1.911 2.666-4.391 4.659-7.442 5.98a40.707 40.707 0 0 0 4.646 7.699c1.863 2.444 4.258 5.121 7.183 8.028h-8.987a35.133 35.133 0 0 1-2.8-2.577 27.642 27.642 0 0 1-2.469-2.94 43.168 43.168 0 0 1-2.37-3.635 107.242 107.242 0 0 1-2.569-4.658c-.571.044-1.208.077-1.91.099a66.3 66.3 0 0 1-2.074.033h-5.499v13.678zM503.08 104.293h-18.237v12.357h27.026v7.731h-34.758V75.945h34.758v7.731h-27.026v12.886h18.237v7.731M555.067 124.381L532.32 91.143v33.238h-7.731V75.945h6.674l22.798 33.304V75.945h7.731v48.436h-6.725M217.958 169.952c-2.094 0-4.003-.361-5.729-1.082a12.849 12.849 0 0 1-4.455-3.062c-1.243-1.321-2.208-2.912-2.894-4.777-.687-1.864-1.03-3.94-1.03-6.226 0-2.151.316-4.144.948-5.982.632-1.837 1.556-3.429 2.772-4.777 1.217-1.346 2.695-2.408 4.435-3.184 1.739-.775 3.724-1.164 5.953-1.164 1.032 0 1.998.077 2.895.227.897.151 1.779.398 2.65.742.869.343 1.739.796 2.609 1.359.87.563 1.794 1.282 2.773 2.158.189.162.189.34 0 .529l-2.121 2.365c-.19.218-.366.259-.53.123-.733-.707-1.44-1.284-2.12-1.733a10.969 10.969 0 0 0-1.998-1.06 9.45 9.45 0 0 0-1.997-.55 13.658 13.658 0 0 0-2.161-.164c-1.577 0-2.997.286-4.261.855-1.264.57-2.331 1.35-3.201 2.34-.87.991-1.536 2.164-1.997 3.521-.463 1.357-.694 2.821-.694 4.395 0 1.573.231 3.039.694 4.395.461 1.357 1.127 2.537 1.997 3.541a9.152 9.152 0 0 0 3.201 2.361c1.264.569 2.684.854 4.261.854 1.576 0 3.003-.231 4.281-.693 1.277-.462 2.663-1.305 4.159-2.528.163-.136.326-.095.489.123l1.998 2.446c.163.218.149.408-.041.571-1.876 1.537-3.656 2.601-5.341 3.191-1.686.591-3.534.886-5.545.886zM248.203 143.939c-1.499 0-2.827.313-3.985.938a8.73 8.73 0 0 0-2.901 2.507 11.396 11.396 0 0 0-1.757 3.547 14.064 14.064 0 0 0-.02 8.012c.38 1.305.967 2.467 1.756 3.486a9.033 9.033 0 0 0 2.963 2.467c1.185.626 2.567.938 4.147.938 1.526 0 2.861-.312 4.005-.938a8.903 8.903 0 0 0 2.881-2.487 11.13 11.13 0 0 0 1.757-3.527c.395-1.318.592-2.67.592-4.057 0-1.359-.191-2.691-.572-3.995a10.389 10.389 0 0 0-1.757-3.487 9.087 9.087 0 0 0-2.942-2.466c-1.171-.625-2.561-.938-4.167-.938zm.224 25.89c-2.23 0-4.179-.428-5.851-1.284-1.672-.856-3.072-1.984-4.199-3.384-1.129-1.4-1.972-2.997-2.528-4.791a18.428 18.428 0 0 1-.836-5.504c0-1.876.278-3.703.836-5.484a14.551 14.551 0 0 1 2.507-4.771c1.114-1.399 2.501-2.527 4.159-3.383 1.657-.857 3.601-1.285 5.83-1.285s4.179.428 5.851 1.285c1.672.856 3.072 1.984 4.2 3.383a14.362 14.362 0 0 1 2.527 4.791 18.43 18.43 0 0 1 .836 5.505c0 1.875-.278 3.703-.836 5.484a14.574 14.574 0 0 1-2.507 4.77c-1.115 1.4-2.501 2.528-4.159 3.384-1.658.856-3.602 1.284-5.83 1.284zM275.451 139.943a.39.39 0 0 1 .326.163l9.01 13.374a.39.39 0 0 0 .327.163.39.39 0 0 0 .326-.163l9.01-13.374a.39.39 0 0 1 .326-.163h2.773c.245 0 .381.123.408.367l3.099 29.071c.026.299-.11.448-.408.448h-3.221c-.244 0-.381-.122-.407-.366l-2.244-21.569c-.027-.19-.128-.306-.305-.347-.177-.041-.32.02-.428.184l-7.462 11.049a.386.386 0 0 1-.326.163h-2.283a.386.386 0 0 1-.326-.163l-7.461-11.09c-.109-.163-.252-.225-.429-.184-.177.041-.279.157-.305.347l-2.243 21.61c-.027.244-.163.366-.408.366h-3.221c-.299 0-.435-.149-.408-.448l3.1-29.071c.026-.244.162-.367.407-.367zM313.752 156.823c0 .272.136.408.408.408h4.933c1.44 0 2.684-.204 3.731-.612 1.046-.407 1.916-.951 2.61-1.631a6.435 6.435 0 0 0 1.528-2.283 7.064 7.064 0 0 0 .489-2.569 6.692 6.692 0 0 0-.509-2.324 5.802 5.802 0 0 0-1.427-2.038c-.639-.598-1.441-1.081-2.406-1.448-.965-.367-2.127-.55-3.486-.55h-5.463c-.272 0-.408.136-.408.408zm0 12.598c0 .273-.137.408-.408.408h-3.139c-.272 0-.408-.135-.408-.408v-29.07c0-.271.136-.408.408-.408h9.155c2.008 0 3.758.286 5.25.856 1.493.571 2.734 1.332 3.724 2.284a9.78 9.78 0 0 1 2.258 3.241 9.986 9.986 0 0 1 .814 3.731c0 1.359-.258 2.705-.772 4.036a10.24 10.24 0 0 1-2.34 3.568c-1.044 1.047-2.353 1.889-3.925 2.528-1.572.639-3.416.958-5.531.958h-4.678c-.272 0-.408.136-.408.408zM354.324 159.758c.163 0 .279-.061.347-.183a.434.434 0 0 0 .02-.387l-5.137-12.191c-.082-.19-.204-.285-.367-.285-.164 0-.286.095-.367.285l-5.137 12.191a.428.428 0 0 0 .02.387c.068.122.184.183.347.183zm-6.727-19.57a.42.42 0 0 1 .407-.245h2.365a.42.42 0 0 1 .407.245l12.64 29.071a.428.428 0 0 1-.02.387c-.068.122-.184.183-.346.183h-3.426c-.162 0-.285-.081-.366-.244l-2.855-6.483c-.081-.163-.204-.244-.367-.244h-13.699a.422.422 0 0 0-.408.244l-2.813 6.483a.422.422 0 0 1-.408.244h-3.384c-.163 0-.279-.061-.346-.183a.425.425 0 0 1-.021-.387zM393.718 169.421c0 .273-.136.408-.407.408h-2.936a.384.384 0 0 1-.326-.163l-14.353-20.957c-.108-.189-.257-.251-.448-.184-.19.069-.285.198-.285.388v20.508c0 .273-.137.408-.408.408h-3.14c-.271 0-.407-.135-.407-.408v-29.07c0-.271.136-.408.407-.408h2.936c.136 0 .245.055.327.163l14.351 20.998c.109.191.258.252.449.184.19-.068.286-.198.286-.388v-20.549c0-.271.134-.408.407-.408h3.14c.271 0 .407.137.407.408zM413.483 152.052c.082.11.189.164.324.164a.381.381 0 0 0 .323-.164l7.934-11.946a.387.387 0 0 1 .326-.163h3.669c.19 0 .319.068.387.204.068.136.062.285-.02.449l-10.561 15.86a.442.442 0 0 0-.081.245v12.72c0 .273-.135.408-.403.408h-3.149c-.268 0-.403-.135-.403-.408v-12.72a.442.442 0 0 0-.081-.245l-10.601-15.86c-.082-.164-.088-.313-.021-.449.068-.136.197-.204.388-.204h3.71c.135 0 .245.055.327.163zM112.355 140.66l-9.903-27.206a12.708 12.708 0 0 0-4.053-5.618c-8.742-6.935-21.563-11.341-28.88-12.386h6.195v.017h20.191L75.699 39.948l5.789-15.931a150.53 150.53 0 0 0 2.024-5.299h12.91l39.793 103.665c.911 2.428 1.822 4.865 2.733 7.322.511 1.38 1.02 2.64 1.53 3.783l2.753 7.172zm-74.391 0c14.822-7.335 19.865-29.034 19.865-29.034-4.585 21.24 11.002 29.034 11.002 29.034zM90.428 2C41.591 2 2 41.59 2 90.428c0 48.838 39.591 88.428 88.428 88.428 48.837 0 88.428-39.59 88.428-88.428C178.856 41.59 139.265 2 90.428 2z" fill="#fff" fill-rule="evenodd"/>
</svg>
