<?xml version="1.0" encoding="UTF-8"?>
<svg width="64.437mm" height="28.673mm" version="1.1" viewBox="0 0 64.436546 28.672638" xmlns="http://www.w3.org/2000/svg" xmlns:cc="http://creativecommons.org/ns#" xmlns:dc="http://purl.org/dc/elements/1.1/" xmlns:rdf="http://www.w3.org/1999/02/22-rdf-syntax-ns#">
<metadata>
<rdf:RDF>
<cc:Work rdf:about="">
<dc:format>image/svg+xml</dc:format>
<dc:type rdf:resource="http://purl.org/dc/dcmitype/StillImage"/>
<dc:title/>
</cc:Work>
</rdf:RDF>
</metadata>
<g transform="translate(-61.516 -134.33)">
<path d="m63.267 145.77s-1.4471-1.9301 0.02346-3.3421c1.4676-1.4092 2.3796-2.1221 4.3563-2.3544 1.9583-0.23012 5.6121 0.92257 6.0172 3.0428 0.40881 2.1393-1.8163 6.3526-3.0889 7.371-1.246 0.9971-4.1681 1.8096-5.4603 3.6106-1.2921 1.8009 0.01594 1.202 0.61978 2.1076 0.60431 0.90628 3.8544-0.19084 5.7858-0.6866 1.9491-0.50028 7.0203-1.8141 8.2078-2.5444 1.1812-0.72645 2.1255-0.90763 2.2526-1.5819 0.1271-0.67464 0.30763-0.95094-0.47776-0.91199-0.78617 0.039-0.70479 0.3023-1.2271 0.9965-0.52092 0.69239-1.3364 2.2065-1.15 3.2648 0.18668 1.06 1.166 1.4126 2.0897 1.3669 0.92217-0.0457 2.8537 0.1262 5.6121-0.6787 2.7723-0.80896 9.5413-4.4795 11.556-5.5186 1.0015-0.51649 3.8376-2.3505 6.5367-4.1586 3.1639-2.1195 4.795-3.2856 5.8755-4.0282 1.1175-0.76806 5.8027-4.0468 6.9198-4.5489 1.3469-0.60533 3.6572-2.1902 4.7656-1.5742 1.1412 0.63433 1.7242 2.0508 2.0429 3.3936 0.10494 0.44213 0.19861 0.88461 0.28206 1.3274 0 0-0.13425 1.0447-0.482 2.3675-0.35497 1.3503-0.90105 2.893-1.5356 4.021-1.2744 2.2653-3.1136 5.8339-5.0067 8.3964-1.8716 2.5335-3.8118 6.2055-3.8118 6.2055-0.0207 0.17949-0.0405 0.35894-0.0593 0.53837" fill="none" stroke="#000" stroke-linecap="round" stroke-width="2.265"/>
</g>
</svg>
