<?xml version="1.0" encoding="UTF-8" standalone="no"?>
<!-- Created with Inkscape (http://www.inkscape.org/) -->

<svg
   xmlns:dc="http://purl.org/dc/elements/1.1/"
   xmlns:cc="http://creativecommons.org/ns#"
   xmlns:rdf="http://www.w3.org/1999/02/22-rdf-syntax-ns#"
   xmlns:svg="http://www.w3.org/2000/svg"
   xmlns="http://www.w3.org/2000/svg"
   xmlns:sodipodi="http://sodipodi.sourceforge.net/DTD/sodipodi-0.dtd"
   xmlns:inkscape="http://www.inkscape.org/namespaces/inkscape"
   width="210mm"
   height="297mm"
   viewBox="0 0 210 297"
   version="1.1"
   id="svg8"
   inkscape:version="0.92.2 (5c3e80d, 2017-08-06)"
   sodipodi:docname="krumelur.svg">
  <defs
     id="defs2">
    <inkscape:path-effect
       effect="envelope"
       id="path-effect4626"
       is_visible="true"
       yy="true"
       xx="true"
       bendpath1="m 86.989493,115.07856 58.747037,0.13363"
       bendpath2="M 149.87921,115.07856 V 141.5413"
       bendpath3="M 86.989493,141.5413 H 149.87921"
       bendpath4="M 86.989493,115.07856 V 141.5413"
       bendpath1-nodetypes="cc" />
    <inkscape:path-effect
       effect="envelope"
       id="path-effect4626-0"
       is_visible="true"
       yy="true"
       xx="true"
       bendpath1="m 62.693131,135.52604 58.747039,0.13363"
       bendpath2="m 125.58285,135.52604 v 26.46274"
       bendpath3="M 62.693131,161.98878 H 125.58285"
       bendpath4="m 62.693131,135.52604 v 26.46274"
       bendpath1-nodetypes="cc" />
  </defs>
  <sodipodi:namedview
     id="base"
     pagecolor="#ffffff"
     bordercolor="#666666"
     borderopacity="1.0"
     inkscape:pageopacity="0.0"
     inkscape:pageshadow="2"
     inkscape:zoom="1.979899"
     inkscape:cx="428.3284"
     inkscape:cy="482.47586"
     inkscape:document-units="mm"
     inkscape:current-layer="layer1"
     showgrid="false"
     inkscape:window-width="2560"
     inkscape:window-height="1377"
     inkscape:window-x="-8"
     inkscape:window-y="-8"
     inkscape:window-maximized="1" />
  <metadata
     id="metadata5">
    <rdf:RDF>
      <cc:Work
         rdf:about="">
        <dc:format>image/svg+xml</dc:format>
        <dc:type
           rdf:resource="http://purl.org/dc/dcmitype/StillImage" />
        <dc:title></dc:title>
      </cc:Work>
    </rdf:RDF>
  </metadata>
  <g
     inkscape:label="Layer 1"
     inkscape:groupmode="layer"
     id="layer1">
    <path
       style="fill:none;stroke:#000000;stroke-width:2.26500034;stroke-linecap:round;stroke-linejoin:miter;stroke-miterlimit:4;stroke-dasharray:none;stroke-opacity:1"
       d="m 63.266847,145.77232 c 0,0 -1.447104,-1.93007 0.02346,-3.34213 1.467616,-1.40923 2.379591,-2.12207 4.356255,-2.35436 1.958262,-0.23012 5.612074,0.92257 6.017243,3.04278 0.408814,2.1393 -1.816289,6.35264 -3.088868,7.37098 -1.246045,0.9971 -4.168083,1.80959 -5.460254,3.61055 -1.292138,1.80092 0.01594,1.20195 0.619778,2.10756 0.604306,0.90628 3.854405,-0.19084 5.785813,-0.6866 1.949069,-0.50028 7.020295,-1.81412 8.207794,-2.54442 1.181222,-0.72645 2.125517,-0.90763 2.252556,-1.58191 0.127099,-0.67464 0.30763,-0.95094 -0.477755,-0.91199 -0.786173,0.039 -0.704786,0.3023 -1.227088,0.9965 -0.520922,0.69239 -1.336379,2.20649 -1.15001,3.26476 0.186677,1.06002 1.166038,1.4126 2.089688,1.36692 0.922169,-0.0457 2.853678,0.1262 5.612071,-0.6787 2.772341,-0.80896 9.54126,-4.47947 11.556076,-5.51856 1.001484,-0.51649 3.837568,-2.35048 6.536728,-4.15864 3.16393,-2.1195 4.79497,-3.28555 5.87551,-4.0282 1.11749,-0.76806 5.80266,-4.04682 6.91985,-4.5489 1.34693,-0.60533 3.65721,-2.19025 4.76562,-1.57416 1.14124,0.63433 1.7242,2.05082 2.04291,3.39359 0.10494,0.44213 0.19861,0.88461 0.28206,1.32744 0,0 -0.13425,1.04474 -0.482,2.36753 -0.35497,1.35032 -0.90105,2.89298 -1.53565,4.02102 -1.27438,2.2653 -3.11364,5.83391 -5.00667,8.39643 -1.87162,2.53352 -3.81181,6.20552 -3.81181,6.20552 -0.0207,0.17949 -0.0405,0.35894 -0.0593,0.53837"
       id="path21"
       inkscape:connector-curvature="0"
       inkscape:path-effect="#path-effect4626-0"
       inkscape:original-d="m 63.331174,145.90781 c 0,0 -1.453616,-1.93295 0.02728,-3.34222 1.480892,-1.40926 2.421791,-2.12376 4.454132,-2.35747 2.03234,-0.2337 5.763201,0.91895 6.119919,3.03953 0.356719,2.1206 -1.975625,6.37812 -3.23943,7.37579 -1.263803,0.99766 -4.209225,1.81087 -5.506302,3.61199 -1.29708,1.80112 0.01691,1.20188 0.623988,2.10744 0.607081,0.90554 3.875408,-0.19082 5.82975,-0.68796 1.954338,-0.49713 7.121376,-1.82063 8.329536,-2.54829 1.20817,-0.72767 2.17142,-0.90873 2.31052,-1.58376 0.13909,-0.67502 0.32837,-0.95161 -0.47344,-0.91213 -0.80181,0.0395 -0.72381,0.30291 -1.26381,0.99767 -0.53999,0.69477 -1.38053,2.20614 -1.20217,3.26644 0.17836,1.06028 1.16399,1.41266 2.09943,1.3666 0.93544,-0.0461 2.88433,0.12525 5.69611,-0.68138 2.81179,-0.80662 9.788069,-4.49099 11.85369,-5.52814 2.065613,-1.03715 11.703143,-7.33898 13.072763,-8.20822 1.36962,-0.86925 6.23557,-3.96782 7.68319,-4.57363 1.44762,-0.60582 4.15905,-2.20931 4.95539,-1.58035 0.79636,0.62897 0.89126,2.09427 0.88035,3.43116 l -0.0109,1.33688 c 0,0 -1.26326,4.20488 -2.51016,6.40443 -1.2469,2.19955 -3.06707,5.89731 -4.90414,8.3932 -1.83707,2.49587 -4.05815,6.21338 -4.05815,6.21338 l -0.11124,0.54001"
       sodipodi:nodetypes="cccccccccccccccccccccsccc" />
  </g>
</svg>
