<?xml version="1.0" standalone="no"?>
<!DOCTYPE svg PUBLIC "-//W3C//DTD SVG 20010904//EN"
 "http://www.w3.org/TR/2001/REC-SVG-20010904/DTD/svg10.dtd">
<svg version="1.0" xmlns="http://www.w3.org/2000/svg"
 width="1949.000000pt" height="1949.000000pt" viewBox="0 0 1949.000000 1949.000000"
 preserveAspectRatio="xMidYMid meet">
<metadata>
Created by potrace 1.11, written by Peter Selinger 2001-2013
</metadata>
<g transform="translate(0.000000,1949.000000) scale(0.100000,-0.100000)"
fill="#000000" stroke="none">
<path d="M9358 19485 c-2 -1 -68 -6 -148 -10 -80 -3 -156 -8 -170 -10 -14 -1
-67 -6 -117 -9 -51 -4 -107 -9 -125 -11 -18 -2 -62 -6 -98 -10 -36 -3 -76 -8
-90 -10 -14 -2 -50 -7 -80 -10 -30 -3 -62 -8 -70 -10 -8 -2 -44 -7 -80 -10
-36 -4 -67 -8 -70 -10 -3 -2 -30 -6 -60 -10 -30 -3 -67 -8 -82 -11 -68 -10
-94 -15 -108 -19 -8 -2 -31 -7 -50 -10 -29 -5 -134 -24 -228 -41 -150 -29
-529 -124 -827 -208 -133 -38 -507 -166 -690 -236 -594 -228 -1076 -469 -1708
-854 -60 -37 -392 -259 -456 -305 -96 -70 -395 -294 -401 -301 -3 -3 -41 -34
-85 -69 -364 -289 -870 -774 -1171 -1121 -21 -25 -41 -47 -44 -50 -3 -3 -30
-34 -60 -70 -30 -36 -57 -67 -60 -70 -15 -15 -110 -132 -206 -255 -328 -419
-594 -819 -853 -1285 -93 -165 -292 -558 -345 -680 -16 -36 -39 -87 -52 -115
-127 -280 -290 -718 -400 -1080 -31 -99 -57 -187 -59 -195 -2 -8 -20 -76 -40
-150 -20 -74 -38 -144 -40 -155 -2 -11 -4 -20 -5 -20 -1 0 -3 -7 -5 -15 -2 -8
-6 -26 -9 -40 -8 -36 -34 -153 -40 -181 -3 -13 -10 -43 -16 -67 -5 -23 -13
-59 -16 -80 -3 -20 -7 -45 -10 -54 -3 -10 -7 -29 -10 -43 -6 -41 -24 -138 -29
-165 -3 -14 -7 -36 -10 -50 -2 -14 -7 -45 -10 -70 -3 -25 -8 -52 -10 -60 -2
-8 -7 -40 -10 -70 -3 -30 -8 -62 -10 -70 -2 -8 -7 -40 -10 -70 -3 -30 -8 -66
-10 -80 -9 -53 -29 -250 -40 -385 -4 -44 -8 -98 -10 -120 -27 -300 -27 -1160
0 -1405 2 -19 6 -75 10 -125 4 -49 8 -101 10 -115 1 -14 6 -59 9 -100 4 -41
10 -93 13 -115 3 -22 7 -51 8 -65 7 -65 16 -127 20 -150 2 -14 7 -45 10 -70 6
-42 48 -300 61 -365 3 -16 12 -64 20 -105 9 -41 17 -84 19 -95 7 -48 59 -268
104 -441 172 -667 406 -1291 712 -1904 95 -190 130 -256 224 -425 20 -37 73
-129 95 -165 43 -72 248 -402 264 -425 12 -16 26 -37 31 -46 58 -94 299 -427
418 -579 69 -88 265 -328 299 -365 14 -16 36 -41 48 -55 170 -198 529 -568
729 -750 51 -47 105 -96 120 -110 14 -14 76 -67 136 -119 61 -51 121 -103 135
-115 14 -11 79 -64 145 -117 712 -568 1484 -1026 2315 -1375 63 -27 117 -49
120 -49 3 -1 27 -11 54 -23 27 -12 51 -22 55 -22 3 0 53 -18 110 -40 291 -113
815 -275 1116 -345 39 -9 81 -19 95 -22 14 -3 31 -7 39 -9 7 -1 34 -8 60 -14
25 -6 55 -12 66 -14 11 -2 65 -13 120 -25 55 -11 118 -23 140 -26 22 -4 47 -8
55 -10 14 -4 28 -6 110 -20 14 -2 41 -7 60 -10 42 -7 87 -14 200 -30 65 -10
245 -32 315 -39 28 -3 70 -8 95 -10 50 -6 177 -16 255 -22 394 -26 1112 -26
1405 1 19 2 76 6 125 10 50 3 104 8 120 10 54 7 119 14 190 20 39 4 77 8 85
10 8 3 53 9 100 15 47 5 96 12 110 15 29 5 136 22 195 30 22 4 47 8 55 10 8 2
35 7 60 10 24 4 47 8 50 10 4 2 29 7 56 11 27 3 52 8 55 10 4 2 24 6 44 10 21
3 47 8 59 10 11 3 32 7 46 10 13 3 63 14 110 25 47 12 94 22 105 25 185 36
973 273 1080 324 11 5 57 23 102 40 391 141 1030 442 1368 644 33 20 72 41 88
47 15 6 27 15 27 20 0 5 5 9 10 9 6 0 47 23 93 50 45 28 87 54 94 58 289 170
823 560 1191 871 481 405 1046 1002 1422 1501 36 47 68 90 73 95 69 84 437
625 437 643 0 5 9 17 20 27 11 10 20 22 20 27 0 5 15 32 33 61 226 354 547
998 734 1472 76 193 115 299 189 520 57 171 176 572 188 635 8 39 13 60 31
130 9 36 19 76 21 90 3 14 10 43 16 65 5 22 12 51 15 65 3 14 6 30 7 35 6 24
26 122 30 145 3 14 12 61 20 105 8 44 18 94 20 110 3 17 14 84 25 150 11 66
23 144 26 174 4 30 8 63 10 73 2 11 7 49 10 86 3 37 8 74 10 82 2 8 7 47 11
85 4 39 8 84 10 100 1 17 5 68 9 115 3 47 8 99 10 115 26 202 27 1134 0 1415
-2 25 -7 83 -10 130 -4 47 -8 96 -10 110 -2 14 -6 54 -10 90 -12 123 -22 203
-41 340 -6 45 -73 448 -78 475 -2 11 -7 31 -10 45 -3 14 -8 36 -10 50 -15 97
-84 385 -151 635 -74 274 -255 822 -325 980 -5 11 -36 85 -68 165 -118 287
-344 761 -445 935 -16 27 -45 79 -65 115 -46 85 -205 349 -254 423 -21 32 -38
60 -38 61 0 5 -142 220 -149 226 -3 3 -10 12 -16 22 -13 22 -90 132 -131 188
-18 25 -48 65 -66 90 -126 172 -399 510 -528 654 -19 22 -57 64 -85 95 -229
254 -553 573 -825 811 -47 41 -93 81 -104 90 -10 8 -39 33 -65 54 -131 112
-450 357 -621 478 -193 135 -695 458 -714 458 -2 0 -34 18 -71 40 -36 23 -76
45 -88 51 -12 5 -58 30 -102 55 -131 73 -478 245 -660 327 -420 188 -810 330
-1325 482 -238 70 -693 173 -970 219 -19 3 -46 8 -60 11 -13 3 -42 7 -65 10
-22 3 -47 8 -55 10 -8 2 -40 7 -70 10 -30 3 -62 8 -70 10 -14 3 -86 13 -150
20 -71 8 -148 16 -175 20 -30 4 -99 11 -197 20 -29 3 -93 8 -143 11 -49 3
-112 8 -140 10 -60 5 -942 14 -947 9z m1051 -1854 c5 -9 46 -113 91 -231 45
-118 97 -253 115 -300 19 -47 160 -416 315 -820 155 -404 292 -762 305 -795
33 -84 303 -787 330 -860 13 -33 103 -267 200 -520 98 -253 190 -494 205 -535
15 -41 48 -127 73 -190 53 -135 365 -947 497 -1295 115 -302 212 -554 225
-582 8 -17 15 -33 15 -36 0 -3 41 -113 91 -244 101 -261 98 -254 191 -498 36
-93 146 -381 246 -640 99 -258 215 -560 257 -670 42 -110 87 -227 100 -260 13
-33 47 -121 75 -195 28 -74 69 -180 90 -235 22 -55 129 -336 240 -625 110
-289 207 -541 215 -560 12 -28 326 -849 447 -1165 16 -44 38 -100 48 -125 10
-25 61 -162 114 -305 53 -143 110 -294 126 -335 15 -41 45 -120 65 -175 20
-55 68 -176 107 -270 38 -93 110 -275 159 -403 127 -332 159 -414 169 -437 23
-55 40 -108 37 -112 -3 -3 -2889 -6 -3355 -3 -25 0 -44 5 -47 12 -10 30 -220
611 -250 693 -19 50 -82 223 -140 385 -59 162 -131 360 -160 440 -30 80 -88
240 -130 355 -42 116 -112 307 -155 425 -43 118 -121 334 -174 480 -131 363
-179 456 -323 632 -96 116 -242 237 -493 410 -85 59 -405 258 -414 258 -2 0
-48 25 -102 56 -156 88 -621 314 -648 314 -6 0 -16 4 -21 9 -6 5 -75 34 -155
66 -80 31 -154 61 -165 66 -174 76 -842 281 -1024 314 -14 3 -65 13 -114 24
-48 10 -90 19 -92 20 -106 13 131 17 1321 21 l1431 5 -314 865 c-173 476 -339
933 -370 1015 -30 83 -66 182 -80 220 -13 39 -31 86 -38 105 -8 19 -35 94 -61
165 -26 72 -70 195 -99 275 -29 80 -90 246 -134 370 -45 124 -89 243 -98 265
-8 22 -28 78 -44 125 -17 47 -36 101 -44 120 -8 19 -30 78 -49 130 -19 52 -82
228 -142 390 -133 367 -163 448 -174 480 -5 14 -17 50 -29 80 -104 285 -208
570 -251 690 -29 80 -72 199 -96 265 -24 66 -79 217 -123 335 l-78 215 42 120
c77 215 256 709 270 745 16 39 245 667 280 770 23 67 117 312 140 365 7 17 39
100 71 186 l58 156 708 0 c636 0 710 -2 717 -16z m-4288 -10382 c-5 -24 -12
-66 -15 -94 -4 -27 -9 -61 -11 -75 -21 -109 -30 -263 -30 -495 0 -273 7 -353
46 -570 34 -189 106 -431 169 -570 137 -305 266 -508 461 -725 93 -104 204
-212 284 -276 33 -26 62 -51 65 -55 8 -11 233 -161 255 -169 24 -10 115 -10
-1822 -13 -853 -1 -1549 2 -1546 6 3 4 30 20 61 36 78 38 299 178 366 232 6 5
31 25 56 45 393 313 722 711 1026 1240 156 273 314 606 436 924 51 132 159
453 183 543 20 74 31 85 16 16z"/>
</g>
</svg>
